<?xml version="1.0" encoding="UTF-8"?> <svg xmlns="http://www.w3.org/2000/svg" width="105" height="15" viewBox="0 0 105 15" fill="none"> <path d="M0.39 5.9V2.9H13.5L0.39 5.9ZM13.5 2.9V5.915H8.82V14H5.13V5.915H0.39V2.9H13.5ZM26.0367 8.18C26.8767 8.35 27.5117 8.645 27.9417 9.065C28.3717 9.475 28.5867 10.065 28.5867 10.835V10.895C28.5867 12.025 28.1167 12.825 27.1767 13.295C26.2467 13.755 24.9067 13.99 23.1567 14H23.1267H22.5417H14.3517V2.9H23.8467C25.0067 2.91 25.9317 3.15 26.6217 3.62C27.3117 4.09 27.6567 4.755 27.6567 5.615V5.675C27.6567 6.325 27.5217 6.855 27.2517 7.265C26.9817 7.675 26.5767 7.98 26.0367 8.18ZM22.1067 7.25C22.6067 7.25 22.9717 7.24 23.2017 7.22C23.4417 7.19 23.6417 7.1 23.8017 6.95C23.9717 6.8 24.0567 6.55 24.0567 6.2C24.0567 5.88 23.9767 5.65 23.8167 5.51C23.6567 5.37 23.4517 5.285 23.2017 5.255C22.9517 5.215 22.5867 5.195 22.1067 5.195H22.0917H17.8167V7.235C18.8467 7.235 19.5267 7.24 19.8567 7.25H20.5767H22.1067ZM22.6017 11.495C23.1617 11.495 23.5817 11.48 23.8617 11.45C24.1417 11.41 24.3667 11.31 24.5367 11.15C24.7067 10.98 24.7917 10.715 24.7917 10.355C24.7917 10.005 24.7067 9.755 24.5367 9.605C24.3667 9.445 24.1417 9.35 23.8617 9.32C23.5817 9.28 23.1617 9.26 22.6017 9.26H22.5867H17.8167V11.48C19.2267 11.48 20.2267 11.485 20.8167 11.495C21.4167 11.495 21.8267 11.495 22.0467 11.495H22.6017ZM36.3525 2.66C37.7225 2.66 38.9575 2.915 40.0575 3.425C41.1675 3.925 42.0325 4.62 42.6525 5.51C43.2825 6.39 43.5975 7.385 43.5975 8.495C43.5975 9.595 43.2825 10.585 42.6525 11.465C42.0325 12.345 41.1725 13.04 40.0725 13.55C38.9725 14.05 37.7375 14.3 36.3675 14.3C35.0475 14.3 33.8275 14.05 32.7075 13.55C31.5875 13.04 30.6975 12.345 30.0375 11.465C29.3875 10.575 29.0625 9.585 29.0625 8.495C29.0625 7.395 29.3875 6.4 30.0375 5.51C30.6975 4.62 31.5825 3.925 32.6925 3.425C33.8125 2.915 35.0325 2.66 36.3525 2.66ZM36.3675 11.495C36.9275 11.495 37.4625 11.375 37.9725 11.135C38.4925 10.895 38.9125 10.55 39.2325 10.1C39.5525 9.65 39.7125 9.115 39.7125 8.495C39.7125 7.875 39.5475 7.34 39.2175 6.89C38.8975 6.43 38.4775 6.085 37.9575 5.855C37.4375 5.615 36.8975 5.495 36.3375 5.495C35.7675 5.495 35.2275 5.615 34.7175 5.855C34.2075 6.095 33.7925 6.445 33.4725 6.905C33.1625 7.355 33.0075 7.885 33.0075 8.495C33.0075 9.115 33.1675 9.65 33.4875 10.1C33.8075 10.55 34.2225 10.895 34.7325 11.135C35.2525 11.375 35.7975 11.495 36.3675 11.495ZM51.1243 3.125C50.0043 3.125 49.0993 2.88 48.4093 2.39C47.7193 1.89 47.3793 1.14 47.3893 0.14H49.3843C49.3843 0.6 49.5443 0.984999 49.8643 1.295C50.1943 1.605 50.6093 1.76 51.1093 1.76C51.5993 1.76 52.0043 1.605 52.3243 1.295C52.6543 0.984999 52.8193 0.6 52.8193 0.14H54.8143C54.8143 1.13 54.4693 1.875 53.7793 2.375C53.0993 2.875 52.2143 3.125 51.1243 3.125ZM48.0643 9.785L54.2143 2.9H57.9043V14H54.2143V7.1L48.0643 14H44.3593V2.9H48.0643V9.785Z" fill="white"></path> <path d="M72.6468 2.9H76.8168L72.4818 8.495L76.8168 14H72.6468L69.9168 10.565L67.1868 14H63.0168L67.3668 8.495L63.0168 2.9H67.1868L69.9168 6.35L72.6468 2.9ZM81.0714 2.9V9.785L87.2214 2.9H90.9114V14H87.2214V7.1L81.0714 14H77.3664V2.9H81.0714ZM91.7716 5.9V2.9H104.882L91.7716 5.9ZM104.882 2.9V5.915H100.202V14H96.5116V5.915H91.7716V2.9H104.882Z" fill="#7E70FF"></path> </svg> 