<?xml version="1.0" encoding="UTF-8"?> <svg xmlns="http://www.w3.org/2000/svg" width="860" height="420" viewBox="0 0 860 420" fill="none"> <g opacity="0.3" filter="url(#filter0_f_780_32650)"> <path d="M441.158 373.45H447.75C455.898 373.45 726.168 377.588 726.168 382.693C726.168 387.797 455.898 391.935 447.75 391.935H441.158C433.011 391.935 157.718 387.797 157.718 382.692C157.718 377.588 433.011 373.45 441.158 373.45Z" fill="#1F2024"></path> </g> <path d="M210.765 33.333H673.121C677.034 33.333 680.786 34.8859 683.553 37.6501C686.32 40.4143 687.874 44.1634 687.874 48.0726V358.231C687.874 362.14 686.32 365.889 683.553 368.653C680.786 371.417 677.034 372.97 673.121 372.97H210.765C206.853 372.97 203.1 371.417 200.334 368.653C197.567 365.889 196.013 362.14 196.013 358.231V48.0726C196.013 44.1634 197.567 40.4143 200.334 37.6501C203.1 34.8859 206.853 33.333 210.765 33.333V33.333Z" fill="#1F2024"></path> <path d="M166.193 372.971H717.693C718.193 372.971 718.672 373.169 719.025 373.522C719.378 373.875 719.577 374.353 719.577 374.852V377.048C719.577 377.547 719.378 378.025 719.025 378.378C718.672 378.731 718.193 378.929 717.693 378.929H166.193C165.694 378.929 165.215 378.731 164.862 378.378C164.508 378.025 164.31 377.547 164.31 377.048V374.852C164.31 374.353 164.508 373.875 164.862 373.522C165.215 373.169 165.694 372.971 166.193 372.971V372.971Z" fill="url(#paint0_linear_780_32650)"></path> <path d="M166.193 378.929H717.693C717.693 378.929 687.556 382.308 639.221 382.692C590.887 383.076 293.142 383.078 244.665 382.692C196.188 382.306 166.193 378.929 166.193 378.929Z" fill="url(#paint1_linear_780_32650)"></path> <defs> <filter id="filter0_f_780_32650" x="139.052" y="354.784" width="605.783" height="55.8175" filterUnits="userSpaceOnUse" color-interpolation-filters="sRGB"> <feFlood flood-opacity="0" result="BackgroundImageFix"></feFlood> <feBlend mode="normal" in="SourceGraphic" in2="BackgroundImageFix" result="shape"></feBlend> <feGaussianBlur stdDeviation="9.33329" result="effect1_foregroundBlur_780_32650"></feGaussianBlur> </filter> <linearGradient id="paint0_linear_780_32650" x1="724.574" y1="378.929" x2="158.202" y2="378.929" gradientUnits="userSpaceOnUse"> <stop stop-color="#AEAEAE"></stop> <stop offset="0.015" stop-color="#828282"></stop> <stop offset="0.059" stop-color="#DBDBDB"></stop> <stop offset="0.939" stop-color="#DBDBDB"></stop> <stop offset="0.987" stop-color="#828282"></stop> <stop offset="1" stop-color="#AEAEAE"></stop> </linearGradient> <linearGradient id="paint1_linear_780_32650" x1="441.943" y1="378.929" x2="441.943" y2="382.981" gradientUnits="userSpaceOnUse"> <stop stop-color="#747474"></stop> <stop offset="1" stop-color="#3A3A3A"></stop> </linearGradient> </defs> </svg> 