<svg width="12" height="10" viewBox="0 0 12 10" fill="none" xmlns="http://www.w3.org/2000/svg"><path d="M11 1.814C8.793 4.159 6.377 6.098 3.592 7.692c-.873.5-1.087-2.241-1.21-2.925-.064-.357-.146-3.325-.106-3.284C3.763 3.025 5.24 4.609 6.784 6.119c.938.917 1.365 1.92 1.343.248-.019-1.49-.472-2.816-.704-4.263-.239-1.484.055 3.013-.067 4.512-.049.603-.013 1.646-.306 2.193-.49.915-.122-2.087-.173-3.132-.05-1.014-.176-2.019-.186-3.035-.002-.183.14-2.253-.16-1.463A242.642 242.642 0 013.5 8.74c-.544 1.303-.478-2.698-.518-3.173-.009-.098-.226-2.326-.147-2.318.614.058 1.743 1.628 2.301 2.014.812.562 3.05 2.302 2.593 1.408-.866-1.697-4.072-2.724-5.652-3.463-2.8-1.31.635.372 1.636.648C6.086 4.51 8.57 5.179 11 5.539" stroke="#808080" stroke-linecap="round"/></svg>