<?xml version="1.0" encoding="UTF-8"?> <svg xmlns="http://www.w3.org/2000/svg" width="334" height="568" viewBox="0 0 334 568" fill="none"> <path d="M317.839 0H16.1613C7.23566 0 0 7.23566 0 16.1613V551.839C0 560.764 7.23566 568 16.1613 568H317.839C326.764 568 334 560.764 334 551.839V16.1613C334 7.23566 326.764 0 317.839 0Z" fill="url(#paint0_linear_503_2)"></path> <g opacity="0.3"> <path fill-rule="evenodd" clip-rule="evenodd" d="M112.854 503.506H110.73C110.341 503.506 110.022 503.187 110.022 502.798V489.345C110.022 488.955 110.341 488.636 110.73 488.636H112.854C113.244 488.636 113.562 488.955 113.562 489.345V495.592C113.603 495.546 113.65 495.505 113.704 495.469L123.086 489.061C123.546 488.707 124.183 489.061 124.183 489.628V502.514C124.183 503.081 123.546 503.435 123.086 503.081L113.704 496.637C113.65 496.601 113.603 496.56 113.562 496.515V502.798C113.562 503.187 113.244 503.506 112.854 503.506Z" fill="#FCFCFC"></path> <path d="M159.822 485.332V506.81C159.822 507.754 160.884 508.344 161.651 507.754L177.287 497.015C177.996 496.543 177.996 495.54 177.287 495.068L161.651 484.388C160.884 483.798 159.822 484.388 159.822 485.332Z" fill="#FCFCFC"></path> <path fill-rule="evenodd" clip-rule="evenodd" d="M223.311 503.506H225.436C225.825 503.506 226.144 503.187 226.144 502.798V489.344C226.144 488.955 225.825 488.636 225.436 488.636H223.311C222.922 488.636 222.603 488.955 222.603 489.344V495.592C222.563 495.546 222.516 495.505 222.462 495.469L213.08 489.061C212.62 488.707 211.982 489.061 211.982 489.628V502.514C211.982 503.081 212.62 503.435 213.08 503.081L222.462 496.637C222.516 496.601 222.563 496.56 222.603 496.515V502.798C222.603 503.187 222.922 503.506 223.311 503.506Z" fill="#FCFCFC"></path> <path fill-rule="evenodd" clip-rule="evenodd" d="M279.341 488.49C279.617 488.213 280.065 488.213 280.342 488.49L282.466 490.614C282.743 490.89 282.743 491.339 282.466 491.615L280.342 493.739C280.065 494.016 279.617 494.016 279.341 493.739C279.064 493.463 279.064 493.015 279.341 492.738L280.256 491.823H273.823C271.488 491.823 269.574 493.736 269.574 496.071C269.574 496.462 269.257 496.779 268.866 496.779C268.475 496.779 268.158 496.462 268.158 496.071C268.158 492.954 270.706 490.407 273.823 490.407H280.256L279.341 489.491C279.064 489.215 279.064 488.766 279.341 488.49ZM284.444 496.071C284.444 495.68 284.127 495.363 283.736 495.363C283.344 495.363 283.027 495.68 283.027 496.071C283.027 498.406 281.114 500.319 278.779 500.319H272.346L273.261 499.404C273.538 499.127 273.538 498.679 273.261 498.403C272.985 498.126 272.536 498.126 272.26 498.403L270.136 500.527C269.859 500.803 269.859 501.252 270.136 501.528L272.26 503.652C272.536 503.929 272.985 503.929 273.261 503.652C273.538 503.376 273.538 502.927 273.261 502.651L272.346 501.735H278.779C281.896 501.735 284.444 499.188 284.444 496.071Z" fill="#FCFCFC" fill-opacity="0.8"></path> <path fill-rule="evenodd" clip-rule="evenodd" d="M64.2552 492.531H66.2732L65.3527 493.451C65.0695 493.735 65.0695 494.159 65.3527 494.443C65.5297 494.584 65.7067 494.655 65.8837 494.655C66.0608 494.655 66.2378 494.584 66.3794 494.443L68.5036 492.318L68.6098 492.212L68.6452 492.177C68.6452 492.159 68.654 492.15 68.6629 492.141C68.6717 492.133 68.6806 492.124 68.6806 492.106C68.6806 492.071 68.6806 492.071 68.716 492.035C68.716 492 68.716 492 68.7514 491.964C68.7868 491.858 68.7868 491.787 68.7514 491.681C68.7514 491.646 68.7514 491.646 68.716 491.61C68.716 491.575 68.716 491.575 68.6806 491.54C68.6806 491.522 68.6717 491.513 68.6629 491.504C68.654 491.495 68.6452 491.487 68.6452 491.469C68.6452 491.469 68.6452 491.433 68.6098 491.433L68.5036 491.327L66.3794 489.203C66.0962 488.92 65.6713 488.92 65.3881 489.203C65.1049 489.486 65.1049 489.911 65.3881 490.194L66.3086 491.115H64.2906C63.0515 491.115 61.954 491.752 61.2814 492.779L57.6349 498.62C57.2454 499.257 56.5728 499.611 55.8293 499.611H54.5548C54.1654 499.611 53.8467 499.93 53.8467 500.32C53.8467 500.709 54.1654 501.028 54.5548 501.028H55.8293C57.0684 501.028 58.1659 500.39 58.8386 499.364L62.4851 493.522C62.8391 492.92 63.5471 492.531 64.2552 492.531ZM54.5548 492.531H55.8293C56.5728 492.531 57.2454 492.885 57.6349 493.522L57.9535 494.053L58.8032 492.708C58.1305 491.681 57.033 491.079 55.8293 491.079H54.5548C54.1654 491.079 53.8467 491.398 53.8467 491.787C53.8467 492.212 54.1654 492.531 54.5548 492.531ZM68.6806 500.461V500.497C68.6806 500.532 68.6806 500.567 68.6452 500.567V500.603C68.6098 500.674 68.5744 500.744 68.5036 500.815L66.3794 502.939C66.2378 503.081 66.0608 503.152 65.8837 503.152C65.7067 503.152 65.5297 503.081 65.3527 502.939C65.0695 502.656 65.0695 502.231 65.3527 501.948L66.2732 501.028H64.2552C63.0515 501.028 61.954 500.426 61.2814 499.399L62.1664 498.054L62.4851 498.585C62.8745 499.222 63.5471 499.576 64.2906 499.576H66.3086L65.3881 498.656C65.1049 498.372 65.1049 497.948 65.3881 497.664C65.6713 497.381 66.0962 497.381 66.3794 497.664L68.5036 499.789C68.5744 499.859 68.6098 499.93 68.6452 500.001V500.036C68.6806 500.072 68.6806 500.107 68.6806 500.143V500.178C68.716 500.284 68.716 500.355 68.6806 500.461Z" fill="#FCFCFC" fill-opacity="0.8"></path> </g> <g opacity="0.6"> <path d="M291.096 424.658H44.1578C43.3123 424.658 42.627 425.343 42.627 426.189C42.627 427.034 43.3123 427.72 44.1578 427.72H291.096C291.942 427.72 292.627 427.034 292.627 426.189C292.627 425.343 291.942 424.658 291.096 424.658Z" fill="#EBEBFF" fill-opacity="0.2"></path> <path d="M142.132 424.658H44.1578C43.3123 424.658 42.627 425.343 42.627 426.189C42.627 427.034 43.3123 427.72 44.1578 427.72H142.132C142.978 427.72 143.663 427.034 143.663 426.189C143.663 425.343 142.978 424.658 142.132 424.658Z" fill="#FCFCFC" fill-opacity="0.7"></path> <path d="M270.12 439.748H268.26V440.536H270.12V439.748ZM272.793 436.533C271.323 436.533 270.795 437.888 270.795 439.373C270.795 440.865 271.323 442.236 272.793 442.236C274.255 442.236 274.783 440.865 274.783 439.373C274.783 437.888 274.255 436.533 272.793 436.533ZM272.793 437.39C273.566 437.39 273.742 438.546 273.742 439.373C273.742 440.215 273.566 441.363 272.793 441.363C272.004 441.363 271.836 440.215 271.836 439.373C271.836 438.546 272.004 437.39 272.793 437.39ZM279.361 441.21H276.904L278.427 439.786C278.909 439.342 279.345 438.868 279.345 438.125C279.345 437.054 278.458 436.533 277.508 436.533C276.529 436.533 275.679 437.13 275.572 438.263H276.575C276.644 437.75 276.98 437.39 277.47 437.39C277.937 437.39 278.289 437.704 278.289 438.186C278.289 438.577 278.06 438.891 277.769 439.166L275.61 441.202V442.09H279.361V441.21ZM281.719 438.975C281.719 438.646 281.443 438.362 281.099 438.362C280.755 438.362 280.479 438.646 280.479 438.975C280.479 439.312 280.755 439.58 281.099 439.58C281.443 439.58 281.719 439.312 281.719 438.975ZM281.719 441.524C281.719 441.195 281.443 440.919 281.099 440.919C280.755 440.919 280.479 441.195 280.479 441.531C280.479 441.86 280.755 442.136 281.099 442.136C281.443 442.136 281.719 441.86 281.719 441.524ZM283.979 439.664H284.278C284.883 439.664 285.495 439.863 285.495 440.513C285.495 441.11 285.02 441.378 284.561 441.378C284.048 441.378 283.673 441.072 283.535 440.659H282.517C282.785 441.822 283.65 442.236 284.599 442.236C285.571 442.236 286.528 441.669 286.528 440.544C286.528 439.893 286.084 439.396 285.472 439.25V439.235C286 439.09 286.39 438.623 286.39 438.01C286.39 437.031 285.526 436.533 284.607 436.533C283.788 436.533 282.954 436.908 282.67 437.972H283.696C283.826 437.582 284.148 437.36 284.546 437.36C284.974 437.36 285.365 437.643 285.365 438.11C285.365 438.715 284.86 438.891 284.301 438.891H283.979V439.664ZM290.218 436.671H289.3L287.662 437.911L288.198 438.6L289.2 437.834V442.09H290.218V436.671Z" fill="#FCFCFC" fill-opacity="0.8"></path> <path d="M45.0075 436.533C43.5379 436.533 43.0098 437.888 43.0098 439.373C43.0098 440.865 43.5379 442.236 45.0075 442.236C46.4695 442.236 46.9976 440.865 46.9976 439.373C46.9976 437.888 46.4695 436.533 45.0075 436.533ZM45.0075 437.39C45.7806 437.39 45.9566 438.546 45.9566 439.373C45.9566 440.215 45.7806 441.363 45.0075 441.363C44.2191 441.363 44.0507 440.215 44.0507 439.373C44.0507 438.546 44.2191 437.39 45.0075 437.39ZM50.5422 436.671H49.6237L47.9857 437.911L48.5215 438.6L49.5242 437.834V442.09H50.5422V436.671ZM53.9337 438.975C53.9337 438.646 53.6582 438.362 53.3138 438.362C52.9693 438.362 52.6938 438.646 52.6938 438.975C52.6938 439.312 52.9693 439.58 53.3138 439.58C53.6582 439.58 53.9337 439.312 53.9337 438.975ZM53.9337 441.524C53.9337 441.195 53.6582 440.919 53.3138 440.919C52.9693 440.919 52.6938 441.195 52.6938 441.531C52.6938 441.86 52.9693 442.136 53.3138 442.136C53.6582 442.136 53.9337 441.86 53.9337 441.524ZM58.2301 436.671H56.9978L54.7551 440.062V440.942H57.281V442.09H58.2301V440.942H58.9956V440.108H58.2301V436.671ZM57.281 440.108H55.7502L57.2657 437.727H57.281V440.108ZM60.9251 439.664H61.2237C61.8283 439.664 62.4407 439.863 62.4407 440.513C62.4407 441.11 61.9661 441.378 61.5069 441.378C60.994 441.378 60.619 441.072 60.4812 440.659H59.4632C59.7311 441.822 60.596 442.236 61.5451 442.236C62.5172 442.236 63.474 441.669 63.474 440.544C63.474 439.893 63.0301 439.396 62.4177 439.25V439.235C62.9459 439.09 63.3362 438.623 63.3362 438.01C63.3362 437.031 62.4713 436.533 61.5528 436.533C60.7338 436.533 59.8995 436.908 59.6163 437.972H60.6419C60.7721 437.582 61.0935 437.36 61.4916 437.36C61.9202 437.36 62.3106 437.643 62.3106 438.11C62.3106 438.715 61.8054 438.891 61.2466 438.891H60.9251V439.664Z" fill="#FCFCFC" fill-opacity="0.8"></path> </g>  <defs> <linearGradient id="paint0_linear_503_2" x1="167" y1="568" x2="167" y2="39" gradientUnits="userSpaceOnUse"> <stop stop-color="#0D0D0F" stop-opacity="0"></stop> <stop offset="0.145833" stop-color="#7E70FF"></stop> <stop offset="1" stop-color="#7E70FF"></stop> </linearGradient> </defs> </svg> 